{
    "asset" : {
        "generator" : "Khronos glTF Blender I/O v1.6.16",
        "version" : "2.0"
    },
    "scene" : 0,
    "scenes" : [
        {
            "name" : "Scene",
            "nodes" : [
                0,
                1
            ]
        }
    ],
    "nodes" : [
        {
            "mesh" : 0,
            "name" : "Eve.002",
            "rotation" : [
                0,
                0.41453367471694946,
                0,
                0.9100340008735657
            ],
            "scale" : [
                0.017682978883385658,
                0.017682978883385658,
                0.017682978883385658
            ],
            "translation" : [
                0,
                0.08504999428987503,
                0
            ]
        },
        {
            "mesh" : 1,
            "name" : "Eyes.001",
            "rotation" : [
                0.2910584807395935,
                -0.3292434811592102,
                -0.559054970741272,
                0.7030940055847168
            ],
            "scale" : [
                0.03369143232703209,
                0.033691443502902985,
                0.033691439777612686
            ],
            "translation" : [
                0.14597611129283905,
                0.712401270866394,
                0.3162246346473694
            ]
        }
    ],
    "materials" : [
        {
            "doubleSided" : true,
            "name" : "White_Steel",
            "pbrMetallicRoughness" : {
                "baseColorFactor" : [
                    0.800000011920929,
                    0.800000011920929,
                    0.800000011920929,
                    1
                ],
                "metallicFactor" : 0,
                "roughnessFactor" : 0.26691728830337524
            }
        },
        {
            "doubleSided" : true,
            "name" : "Black Display",
            "pbrMetallicRoughness" : {
                "baseColorFactor" : [
                    0,
                    0,
                    0,
                    1
                ],
                "roughnessFactor" : 0.08646616339683533
            }
        },
        {
            "doubleSided" : true,
            "emissiveFactor" : [
                0,
                1,
                1
            ],
            "name" : "Eye Glow",
            "pbrMetallicRoughness" : {
                "baseColorFactor" : [
                    0,
                    0.7672885656356812,
                    0.8000000715255737,
                    1
                ],
                "metallicFactor" : 0,
                "roughnessFactor" : 0
            }
        },
        {
            "doubleSided" : true,
            "emissiveFactor" : [
                0,
                1,
                1
            ],
            "name" : "Eye Glow.001",
            "pbrMetallicRoughness" : {
                "baseColorFactor" : [
                    0,
                    0.7672885656356812,
                    0.8000000715255737,
                    1
                ],
                "metallicFactor" : 0,
                "roughnessFactor" : 0.3308270573616028
            }
        }
    ],
    "meshes" : [
        {
            "name" : "Eve.002",
            "primitives" : [
                {
                    "attributes" : {
                        "POSITION" : 0,
                        "NORMAL" : 1,
                        "TEXCOORD_0" : 2
                    },
                    "indices" : 3,
                    "material" : 0
                },
                {
                    "attributes" : {
                        "POSITION" : 4,
                        "NORMAL" : 5,
                        "TEXCOORD_0" : 6
                    },
                    "indices" : 7,
                    "material" : 1
                }
            ]
        },
        {
            "name" : "Plane.004",
            "primitives" : [
                {
                    "attributes" : {
                        "POSITION" : 8,
                        "NORMAL" : 9,
                        "TEXCOORD_0" : 10
                    },
                    "indices" : 11,
                    "material" : 2
                },
                {
                    "attributes" : {
                        "POSITION" : 12,
                        "NORMAL" : 13,
                        "TEXCOORD_0" : 14
                    },
                    "indices" : 15,
                    "material" : 3
                }
            ]
        }
    ],
    "accessors" : [
        {
            "bufferView" : 0,
            "componentType" : 5126,
            "count" : 11992,
            "max" : [
                37.600791931152344,
                52.44109344482422,
                25.453611373901367
            ],
            "min" : [
                -37.1328010559082,
                -75,
                -25.453611373901367
            ],
            "type" : "VEC3"
        },
        {
            "bufferView" : 1,
            "componentType" : 5126,
            "count" : 11992,
            "type" : "VEC3"
        },
        {
            "bufferView" : 2,
            "componentType" : 5126,
            "count" : 11992,
            "type" : "VEC2"
        },
        {
            "bufferView" : 3,
            "componentType" : 5123,
            "count" : 65778,
            "type" : "SCALAR"
        },
        {
            "bufferView" : 4,
            "componentType" : 5126,
            "count" : 127,
            "max" : [
                15.80137825012207,
                43.0255241394043,
                19.865446090698242
            ],
            "min" : [
                -15.80137825012207,
                28.18280792236328,
                13.688268661499023
            ],
            "type" : "VEC3"
        },
        {
            "bufferView" : 5,
            "componentType" : 5126,
            "count" : 127,
            "type" : "VEC3"
        },
        {
            "bufferView" : 6,
            "componentType" : 5126,
            "count" : 127,
            "type" : "VEC2"
        },
        {
            "bufferView" : 7,
            "componentType" : 5123,
            "count" : 648,
            "type" : "SCALAR"
        },
        {
            "bufferView" : 8,
            "componentType" : 5126,
            "count" : 357,
            "max" : [
                0.9167967438697815,
                2.8436323518121753e-08,
                2
            ],
            "min" : [
                -1.844478726387024,
                -0.5531461834907532,
                -2
            ],
            "type" : "VEC3"
        },
        {
            "bufferView" : 9,
            "componentType" : 5126,
            "count" : 357,
            "type" : "VEC3"
        },
        {
            "bufferView" : 10,
            "componentType" : 5126,
            "count" : 357,
            "type" : "VEC2"
        },
        {
            "bufferView" : 11,
            "componentType" : 5123,
            "count" : 576,
            "type" : "SCALAR"
        },
        {
            "bufferView" : 12,
            "componentType" : 5126,
            "count" : 384,
            "max" : [
                1.0865110158920288,
                -0.8402318954467773,
                -6.082763671875
            ],
            "min" : [
                -1.8303202390670776,
                -2.9648430347442627,
                -10.098838806152344
            ],
            "type" : "VEC3"
        },
        {
            "bufferView" : 13,
            "componentType" : 5126,
            "count" : 384,
            "type" : "VEC3"
        },
        {
            "bufferView" : 14,
            "componentType" : 5126,
            "count" : 384,
            "type" : "VEC2"
        },
        {
            "bufferView" : 15,
            "componentType" : 5123,
            "count" : 576,
            "type" : "SCALAR"
        }
    ],
    "bufferViews" : [
        {
            "buffer" : 0,
            "byteLength" : 143904,
            "byteOffset" : 0
        },
        {
            "buffer" : 0,
            "byteLength" : 143904,
            "byteOffset" : 143904
        },
        {
            "buffer" : 0,
            "byteLength" : 95936,
            "byteOffset" : 287808
        },
        {
            "buffer" : 0,
            "byteLength" : 131556,
            "byteOffset" : 383744
        },
        {
            "buffer" : 0,
            "byteLength" : 1524,
            "byteOffset" : 515300
        },
        {
            "buffer" : 0,
            "byteLength" : 1524,
            "byteOffset" : 516824
        },
        {
            "buffer" : 0,
            "byteLength" : 1016,
            "byteOffset" : 518348
        },
        {
            "buffer" : 0,
            "byteLength" : 1296,
            "byteOffset" : 519364
        },
        {
            "buffer" : 0,
            "byteLength" : 4284,
            "byteOffset" : 520660
        },
        {
            "buffer" : 0,
            "byteLength" : 4284,
            "byteOffset" : 524944
        },
        {
            "buffer" : 0,
            "byteLength" : 2856,
            "byteOffset" : 529228
        },
        {
            "buffer" : 0,
            "byteLength" : 1152,
            "byteOffset" : 532084
        },
        {
            "buffer" : 0,
            "byteLength" : 4608,
            "byteOffset" : 533236
        },
        {
            "buffer" : 0,
            "byteLength" : 4608,
            "byteOffset" : 537844
        },
        {
            "buffer" : 0,
            "byteLength" : 3072,
            "byteOffset" : 542452
        },
        {
            "buffer" : 0,
            "byteLength" : 1152,
            "byteOffset" : 545524
        }
    ],
    "buffers" : [
        {
            "byteLength" : 546676,
            "uri" : "data:application/octet-stream;base64,"
        }
    ]
}
